<svg xmlns="http://www.w3.org/2000/svg" version="1.1" xmlns:xlink="http://www.w3.org/1999/xlink" xmlns:svgjs="http://svgjs.dev/svgjs" width="128" height="128" viewBox="0 0 128 128"><g transform="matrix(0.8046875,0,0,0.8046875,12.333870967741937,12.333870967741937)"><svg viewBox="0 0 155 155" data-background-color="#0a1627" preserveAspectRatio="xMidYMid meet" height="128" width="128" xmlns="http://www.w3.org/2000/svg" xmlns:xlink="http://www.w3.org/1999/xlink"><g id="tight-bounds" transform="matrix(1,0,0,1,0.25,0.25)"><svg viewBox="0 0 154.5 154.5" height="154.5" width="154.5"><g><svg></svg></g><g><svg viewBox="0 0 154.5 154.5" height="154.5" width="154.5"><mask id="b97a4557-aeea-4630-a88c-d92c628df14e"><rect width="250" height="250" fill="white"></rect><g transform="matrix(1,0,0,1,60.34190625,43.83165)"><svg viewBox="0 0 33.8161875 66.8367" height="66.8367" width="33.8161875"><g><svg viewBox="0 0 33.8161875 66.8367" height="66.8367" width="33.8161875"><g><svg viewBox="0 0 33.8161875 66.8367" height="66.8367" width="33.8161875"><g id="SvgjsG1555"><svg viewBox="0 0 33.8161875 66.8367" height="66.8367" width="33.8161875" id="SvgjsSvg1554"><g><svg viewBox="0 0 33.8161875 66.8367" height="66.8367" width="33.8161875"><g transform="matrix(1,0,0,1,0,0)"><svg width="33.8161875" viewBox="-1.5 -39 22.25 43" height="66.8367" data-palette-color="#fe0039"><path d="M16.75 0L2.5 0 2.5-0.75 5.5-1.5 5.5-33.5 2.5-34.25 2.5-35 16.75-35 16.75-34.25 13.75-33.5 13.75-1.5 16.75-0.75 16.75 0Z" opacity="1" transform="matrix(1,0,0,1,0,0)" fill="black" class="wordmark-text-0" id="SvgjsPath1553" stroke-width="7" stroke="black" stroke-linejoin="round"></path></svg></g></svg></g></svg></g></svg></g><g></g></svg></g></svg></g></mask><g transform="matrix(1,0,0,1,60.34190625,43.83165)"><svg viewBox="0 0 33.8161875 66.8367" height="66.8367" width="33.8161875"><g><svg viewBox="0 0 33.8161875 66.8367" height="66.8367" width="33.8161875"><g><svg viewBox="0 0 33.8161875 66.8367" height="66.8367" width="33.8161875"><g id="textblocktransform"><svg viewBox="0 0 33.8161875 66.8367" height="66.8367" width="33.8161875" id="textblock"><g><svg viewBox="0 0 33.8161875 66.8367" height="66.8367" width="33.8161875"><g transform="matrix(1,0,0,1,0,0)"><svg width="33.8161875" viewBox="-1.5 -39 22.25 43" height="66.8367" data-palette-color="#fe0039"><path d="M16.75 0L2.5 0 2.5-0.75 5.5-1.5 5.5-33.5 2.5-34.25 2.5-35 16.75-35 16.75-34.25 13.75-33.5 13.75-1.5 16.75-0.75 16.75 0Z" opacity="1" transform="matrix(1,0,0,1,0,0)" fill="#fe0039" class="wordmark-text-0" data-fill-palette-color="primary" id="text-0"></path></svg></g></svg></g></svg></g></svg></g><g></g></svg></g></svg></g><g mask="url(#b97a4557-aeea-4630-a88c-d92c628df14e)"><g transform="matrix(1.7774514260405376, 0, 0, 1.7774514260405376, 2.1464561697961386, 1)"><svg xmlns="http://www.w3.org/2000/svg" xmlns:xlink="http://www.w3.org/1999/xlink" version="1.1" x="0" y="0" viewBox="7.746 7.195 84.507 85.797" enable-background="new 0 0 100 100" xml:space="preserve" height="85.797" width="84.507" class="icon-none" data-fill-palette-color="accent" id="none"><polygon points="14.468,44.018 7.746,50.739 11.232,54.226 13.218,52.276 13.375,52.437 11.391,54.384 14.769,57.761 17.876,54.654   18.034,54.813 14.927,57.92 18.268,61.26 20.214,59.427 20.369,59.59 18.427,61.419 21.309,64.302 25.666,55.216 " fill="#c1c1c1" data-fill-palette-color="accent"></polygon><polygon points="50,79.55 27.985,57.534 23.604,66.597 25.465,68.457 27.492,66.545 27.644,66.707 25.624,68.616 29.067,72.06   32.162,68.964 32.32,69.122 29.225,72.218 32.549,75.542 34.542,73.587 34.698,73.747 32.708,75.7 36.073,79.066 39.136,76.006   39.294,76.164 36.232,79.226 39.722,82.715 41.692,80.783 41.848,80.942 39.88,82.873 43.266,86.258 46.362,83.161 46.521,83.32   43.424,86.416 46.829,89.82 48.756,87.93 48.914,88.089 46.987,89.979 50,92.992 53.463,89.529 51.654,87.753 51.811,87.594   53.621,89.371 57.028,85.964 54.012,82.949 54.17,82.79 57.187,85.806 60.57,82.422 58.675,80.563 58.832,80.402 60.729,82.263   64.219,78.771 61.175,75.728 61.333,75.568 64.378,78.613 67.763,75.229 65.838,73.34 65.995,73.181 67.922,75.07 71.233,71.758   68.161,68.687 68.32,68.527 71.392,71.6 74.832,68.16 72.872,66.309 73.026,66.146 74.991,68.002 77.241,65.751 72.862,56.688 " fill="#c1c1c1" data-fill-palette-color="accent"></polygon><polygon points="89.224,53.768 92.253,50.739 85.532,44.018 75.173,54.376 79.534,63.458 82.023,60.968 80.149,59.203   80.304,59.039 82.184,60.81 85.522,57.47 82.478,54.425 82.637,54.267 85.682,57.312 89.065,53.926 87.142,52.038 87.298,51.878 " fill="#c1c1c1" data-fill-palette-color="accent"></polygon><path d="M80.78 72.561c1.745 0 4.549 3.486 4.549 3.486l-5.963-12.421-1.957 1.957L80.78 72.561z" fill="#c1c1c1" data-fill-palette-color="accent"></path><path d="M56.647 16.307c-1.047 2.436-3.469 4.146-6.283 4.146-0.068 0-0.136-0.003-0.205-0.005l8.942 16.03c0.055-0.017 0.11-0.032 0.165-0.043 0.021-0.005 0.041-0.008 0.063-0.012 0.034-0.007 0.068-0.014 0.104-0.019 0.025-0.004 0.053-0.006 0.08-0.009 0.028-0.003 0.058-0.007 0.086-0.009 0.027-0.002 0.055-0.002 0.082-0.003 0.029-0.001 0.058-0.002 0.084-0.002 0.008 0 0.014 0 0.02 0 0.097 0.001 0.193 0.007 0.29 0.019 0.004 0 0.008 0 0.012 0.001 0.098 0.012 0.193 0.03 0.29 0.053 0.009 0.002 0.019 0.005 0.028 0.007 0.093 0.022 0.187 0.051 0.279 0.083 0.013 0.004 0.024 0.008 0.037 0.013 0.092 0.033 0.184 0.069 0.274 0.11 0.014 0.006 0.026 0.012 0.04 0.018 0.091 0.042 0.182 0.088 0.272 0.137 0.013 0.008 0.025 0.015 0.038 0.022 0.092 0.051 0.184 0.104 0.274 0.162 0.01 0.007 0.021 0.014 0.032 0.021 0.093 0.06 0.185 0.123 0.277 0.189 0.006 0.006 0.015 0.011 0.021 0.017 0.095 0.069 0.19 0.142 0.285 0.218 0 0 0 0.001 0.001 0.001 0.099 0.08 0.196 0.162 0.294 0.248 0 0.001 0.001 0.001 0.002 0.002 0.095 0.082 0.186 0.168 0.278 0.256 0.006 0.006 0.014 0.012 0.02 0.018 0.088 0.085 0.176 0.173 0.264 0.261 0.009 0.01 0.018 0.018 0.026 0.027 0.086 0.088 0.17 0.177 0.254 0.269 0.009 0.009 0.019 0.02 0.028 0.03 0.083 0.09 0.165 0.183 0.246 0.277 0.01 0.009 0.018 0.02 0.027 0.029 0.082 0.095 0.162 0.19 0.242 0.288 0.007 0.007 0.014 0.016 0.021 0.024 0.081 0.1 0.161 0.198 0.24 0.299 0.003 0.003 0.007 0.008 0.01 0.012 0.166 0.21 0.324 0.422 0.478 0.631 0.001 0.001 0.001 0.001 0.002 0.002 0.074 0.102 0.147 0.204 0.219 0.305 0.004 0.006 0.008 0.013 0.013 0.019 0.068 0.097 0.135 0.195 0.201 0.29 0.006 0.009 0.013 0.019 0.019 0.028 0.063 0.094 0.127 0.188 0.187 0.279 0.008 0.009 0.014 0.019 0.02 0.027 0.06 0.091 0.118 0.182 0.175 0.27 0.006 0.009 0.012 0.019 0.018 0.027 0.058 0.089 0.111 0.176 0.164 0.261 0.005 0.006 0.009 0.013 0.012 0.019 0.055 0.087 0.107 0.171 0.156 0.253 0.003 0.002 0.004 0.005 0.006 0.007 0.104 0.17 0.197 0.329 0.281 0.472 0.001 0.001 0.001 0.003 0.002 0.004 0.04 0.069 0.078 0.135 0.114 0.196 0.002 0.006 0.006 0.011 0.008 0.017 0.034 0.059 0.064 0.114 0.094 0.166 0.004 0.006 0.008 0.013 0.011 0.019 0.028 0.05 0.055 0.096 0.078 0.138 0.002 0.006 0.006 0.012 0.008 0.017 0.022 0.041 0.044 0.079 0.062 0.112 0.002 0.004 0.004 0.008 0.007 0.013 0.017 0.032 0.031 0.06 0.045 0.083 0 0.001 0.001 0.002 0.002 0.005 0.012 0.022 0.021 0.041 0.028 0.053 0.001 0.002 0.001 0.003 0.002 0.006 0.004 0.007 0.009 0.014 0.009 0.014L80.78 72.561c1.745 0 4.549 3.486 4.549 3.486L56.647 16.307z" fill="#c1c1c1" data-fill-palette-color="accent"></path><path d="M50.364 7.195c-3.542 0-6.423 2.881-6.423 6.423 0 1.11 0.284 2.155 0.782 3.067 1.002 1.836 2.875 3.131 5.06 3.329 0.087 0.008 0.173 0.015 0.26 0.02 0.107 0.005 0.214 0.008 0.322 0.008 2.714 0 5.037-1.692 5.977-4.076 0.288-0.728 0.447-1.519 0.447-2.347C56.788 10.076 53.905 7.195 50.364 7.195zM50.364 17.968c-2.402 0-4.35-1.948-4.35-4.35s1.947-4.35 4.35-4.35 4.351 1.948 4.351 4.35S52.767 17.968 50.364 17.968z" fill="#c1c1c1" data-fill-palette-color="accent"></path><path d="M44.328 16.818L25.834 55.384l-9.908 20.663c0 0 2.805-3.486 4.548-3.486l7.67-15.873 6.505-13.464c0 0 3.522-6.845 6.833-6.845 0.225 0 0.45 0.032 0.672 0.099l8.188-14.833L49.636 20.4C47.335 20.154 45.369 18.773 44.328 16.818z" fill="#c1c1c1" data-fill-palette-color="accent"></path></svg></g></g></svg></g><defs></defs></svg><rect width="154.5" height="154.5" fill="none" stroke="none" visibility="hidden"></rect></g></svg></g></svg>